<mxfile host="Electron" modified="2024-07-26T04:13:26.254Z" agent="Mozilla/5.0 (X11; Linux x86_64) AppleWebKit/537.36 (KHTML, like Gecko) draw.io/24.6.1 Chrome/124.0.6367.207 Electron/30.0.6 Safari/537.36" etag="0MjNWwfBI66a_XrMMklN" version="24.6.1" type="device">
  <diagram name="第 1 页" id="ZKnftyCeU3d9vPjlkN9Q">
    <mxGraphModel dx="478" dy="275" grid="1" gridSize="10" guides="1" tooltips="1" connect="1" arrows="1" fold="1" page="0" pageScale="1" pageWidth="827" pageHeight="1169" math="0" shadow="0">
      <root>
        <mxCell id="0" />
        <mxCell id="1" parent="0" />
        <mxCell id="l_rtGzSlXgLV2D2QH9FF-15" style="edgeStyle=orthogonalEdgeStyle;rounded=0;orthogonalLoop=1;jettySize=auto;html=1;entryX=0.25;entryY=0;entryDx=0;entryDy=0;" edge="1" parent="1" source="l_rtGzSlXgLV2D2QH9FF-13" target="l_rtGzSlXgLV2D2QH9FF-14">
          <mxGeometry relative="1" as="geometry" />
        </mxCell>
        <mxCell id="l_rtGzSlXgLV2D2QH9FF-13" value="" style="verticalLabelPosition=bottom;shadow=0;dashed=0;align=center;html=1;verticalAlign=top;shape=mxgraph.electrical.logic_gates.logic_gate;operation=xor;rotation=90;" vertex="1" parent="1">
          <mxGeometry x="230" y="370" width="60" height="40" as="geometry" />
        </mxCell>
        <mxCell id="l_rtGzSlXgLV2D2QH9FF-22" style="edgeStyle=orthogonalEdgeStyle;rounded=0;orthogonalLoop=1;jettySize=auto;html=1;exitX=0.5;exitY=1;exitDx=0;exitDy=0;" edge="1" parent="1" source="l_rtGzSlXgLV2D2QH9FF-14">
          <mxGeometry relative="1" as="geometry">
            <mxPoint x="280" y="580" as="targetPoint" />
          </mxGeometry>
        </mxCell>
        <mxCell id="l_rtGzSlXgLV2D2QH9FF-27" style="edgeStyle=orthogonalEdgeStyle;rounded=0;orthogonalLoop=1;jettySize=auto;html=1;endArrow=none;endFill=0;entryX=0;entryY=0.75;entryDx=0;entryDy=0;entryPerimeter=0;" edge="1" parent="1" source="l_rtGzSlXgLV2D2QH9FF-14" target="l_rtGzSlXgLV2D2QH9FF-28">
          <mxGeometry relative="1" as="geometry">
            <mxPoint x="180" y="540" as="targetPoint" />
          </mxGeometry>
        </mxCell>
        <mxCell id="l_rtGzSlXgLV2D2QH9FF-14" value="Full&lt;div&gt;Adder&lt;/div&gt;" style="rounded=0;whiteSpace=wrap;html=1;" vertex="1" parent="1">
          <mxGeometry x="240" y="440" width="80" height="80" as="geometry" />
        </mxCell>
        <mxCell id="l_rtGzSlXgLV2D2QH9FF-17" value="" style="endArrow=classic;html=1;rounded=0;entryX=0.75;entryY=0;entryDx=0;entryDy=0;" edge="1" parent="1" target="l_rtGzSlXgLV2D2QH9FF-14">
          <mxGeometry width="50" height="50" relative="1" as="geometry">
            <mxPoint x="300" y="340" as="sourcePoint" />
            <mxPoint x="350" y="310" as="targetPoint" />
          </mxGeometry>
        </mxCell>
        <mxCell id="l_rtGzSlXgLV2D2QH9FF-18" value="" style="endArrow=none;html=1;rounded=0;" edge="1" parent="1">
          <mxGeometry width="50" height="50" relative="1" as="geometry">
            <mxPoint x="250" y="360" as="sourcePoint" />
            <mxPoint x="250" y="340" as="targetPoint" />
          </mxGeometry>
        </mxCell>
        <mxCell id="l_rtGzSlXgLV2D2QH9FF-19" value="" style="endArrow=none;html=1;rounded=0;" edge="1" parent="1">
          <mxGeometry width="50" height="50" relative="1" as="geometry">
            <mxPoint x="270" y="360" as="sourcePoint" />
            <mxPoint x="330" y="350" as="targetPoint" />
            <Array as="points">
              <mxPoint x="270" y="350" />
            </Array>
          </mxGeometry>
        </mxCell>
        <mxCell id="l_rtGzSlXgLV2D2QH9FF-20" value="&lt;font face=&quot;Tahoma&quot; style=&quot;font-size: 11px;&quot;&gt;&lt;i style=&quot;&quot;&gt;b&lt;sub style=&quot;&quot;&gt;n-1&lt;/sub&gt;&lt;/i&gt;&lt;/font&gt;" style="text;strokeColor=none;align=center;fillColor=none;html=1;verticalAlign=middle;whiteSpace=wrap;rounded=0;" vertex="1" parent="1">
          <mxGeometry x="240" y="320" width="20" height="10" as="geometry" />
        </mxCell>
        <mxCell id="l_rtGzSlXgLV2D2QH9FF-21" value="&lt;font face=&quot;Tahoma&quot; style=&quot;font-size: 11px;&quot;&gt;&lt;i&gt;a&lt;sub&gt;n-1&lt;/sub&gt;&lt;/i&gt;&lt;/font&gt;" style="text;strokeColor=none;align=center;fillColor=none;html=1;verticalAlign=middle;whiteSpace=wrap;rounded=0;" vertex="1" parent="1">
          <mxGeometry x="290" y="320" width="20" height="10" as="geometry" />
        </mxCell>
        <mxCell id="l_rtGzSlXgLV2D2QH9FF-23" value="&lt;font style=&quot;font-size: 11px;&quot;&gt;s&lt;sub&gt;n-1&lt;/sub&gt;&lt;/font&gt;" style="text;strokeColor=none;align=center;fillColor=none;html=1;verticalAlign=middle;whiteSpace=wrap;rounded=0;fontStyle=2;fontFamily=Tahoma;" vertex="1" parent="1">
          <mxGeometry x="270" y="580" width="20" height="10" as="geometry" />
        </mxCell>
        <mxCell id="l_rtGzSlXgLV2D2QH9FF-25" value="&lt;font face=&quot;Tahoma&quot; style=&quot;font-size: 11px;&quot;&gt;&lt;i&gt;c&lt;sub&gt;n-1&lt;/sub&gt;&lt;/i&gt;&lt;/font&gt;" style="endArrow=classic;html=1;rounded=0;entryX=1;entryY=0.5;entryDx=0;entryDy=0;labelPosition=left;verticalLabelPosition=top;align=right;verticalAlign=bottom;" edge="1" parent="1" target="l_rtGzSlXgLV2D2QH9FF-14">
          <mxGeometry width="50" height="50" relative="1" as="geometry">
            <mxPoint x="360" y="480" as="sourcePoint" />
            <mxPoint x="400" y="455" as="targetPoint" />
          </mxGeometry>
        </mxCell>
        <mxCell id="l_rtGzSlXgLV2D2QH9FF-26" value="" style="endArrow=none;html=1;rounded=0;endFill=0;" edge="1" parent="1">
          <mxGeometry width="50" height="50" relative="1" as="geometry">
            <mxPoint x="340" y="480" as="sourcePoint" />
            <mxPoint x="220" y="540" as="targetPoint" />
            <Array as="points">
              <mxPoint x="340" y="530" />
              <mxPoint x="220" y="530" />
            </Array>
          </mxGeometry>
        </mxCell>
        <mxCell id="l_rtGzSlXgLV2D2QH9FF-30" style="edgeStyle=orthogonalEdgeStyle;rounded=0;orthogonalLoop=1;jettySize=auto;html=1;" edge="1" parent="1" source="l_rtGzSlXgLV2D2QH9FF-28">
          <mxGeometry relative="1" as="geometry">
            <mxPoint x="210" y="620" as="targetPoint" />
          </mxGeometry>
        </mxCell>
        <mxCell id="l_rtGzSlXgLV2D2QH9FF-28" value="" style="verticalLabelPosition=bottom;shadow=0;dashed=0;align=center;html=1;verticalAlign=top;shape=mxgraph.electrical.logic_gates.logic_gate;operation=xor;rotation=90;" vertex="1" parent="1">
          <mxGeometry x="180" y="550" width="60" height="40" as="geometry" />
        </mxCell>
        <mxCell id="l_rtGzSlXgLV2D2QH9FF-31" value="&lt;span style=&quot;font-size: 10px;&quot;&gt;Signed Overflow&lt;/span&gt;" style="text;strokeColor=none;align=center;fillColor=none;html=1;verticalAlign=middle;whiteSpace=wrap;rounded=0;" vertex="1" parent="1">
          <mxGeometry x="170" y="620" width="80" height="10" as="geometry" />
        </mxCell>
        <mxCell id="l_rtGzSlXgLV2D2QH9FF-32" value="&lt;font style=&quot;font-size: 10px;&quot;&gt;Unsigned Overflow&lt;/font&gt;" style="endArrow=classic;html=1;rounded=0;exitX=0;exitY=0.5;exitDx=0;exitDy=0;labelPosition=left;verticalLabelPosition=top;align=right;verticalAlign=bottom;horizontal=1;spacingBottom=4;" edge="1" parent="1" source="l_rtGzSlXgLV2D2QH9FF-14">
          <mxGeometry x="0.0038" width="50" height="50" relative="1" as="geometry">
            <mxPoint x="160" y="520" as="sourcePoint" />
            <mxPoint x="180" y="480" as="targetPoint" />
            <mxPoint as="offset" />
          </mxGeometry>
        </mxCell>
        <mxCell id="l_rtGzSlXgLV2D2QH9FF-34" value="/ /" style="endArrow=none;html=1;rounded=0;labelPosition=center;verticalLabelPosition=middle;align=center;verticalAlign=middle;dashed=1;" edge="1" parent="1">
          <mxGeometry width="50" height="50" relative="1" as="geometry">
            <mxPoint x="360" y="480" as="sourcePoint" />
            <mxPoint x="420" y="480" as="targetPoint" />
          </mxGeometry>
        </mxCell>
        <mxCell id="l_rtGzSlXgLV2D2QH9FF-35" value="" style="verticalLabelPosition=bottom;shadow=0;dashed=0;align=center;html=1;verticalAlign=top;shape=mxgraph.electrical.logic_gates.logic_gate;operation=xor;rotation=90;" vertex="1" parent="1">
          <mxGeometry x="450" y="370" width="60" height="40" as="geometry" />
        </mxCell>
        <mxCell id="l_rtGzSlXgLV2D2QH9FF-36" style="edgeStyle=orthogonalEdgeStyle;rounded=0;orthogonalLoop=1;jettySize=auto;html=1;exitX=0.5;exitY=1;exitDx=0;exitDy=0;" edge="1" parent="1" source="l_rtGzSlXgLV2D2QH9FF-37">
          <mxGeometry relative="1" as="geometry">
            <mxPoint x="500" y="580" as="targetPoint" />
          </mxGeometry>
        </mxCell>
        <mxCell id="l_rtGzSlXgLV2D2QH9FF-47" style="edgeStyle=orthogonalEdgeStyle;rounded=0;orthogonalLoop=1;jettySize=auto;html=1;" edge="1" parent="1" source="l_rtGzSlXgLV2D2QH9FF-37">
          <mxGeometry relative="1" as="geometry">
            <mxPoint x="420" y="480" as="targetPoint" />
          </mxGeometry>
        </mxCell>
        <mxCell id="l_rtGzSlXgLV2D2QH9FF-49" value="&lt;font face=&quot;Tahoma&quot; style=&quot;font-size: 11px;&quot;&gt;&lt;i&gt;c&lt;sub&gt;2&lt;/sub&gt;&lt;/i&gt;&lt;/font&gt;" style="edgeLabel;html=1;align=right;verticalAlign=bottom;resizable=0;points=[];labelPosition=left;verticalLabelPosition=top;" vertex="1" connectable="0" parent="l_rtGzSlXgLV2D2QH9FF-47">
          <mxGeometry x="-0.0464" relative="1" as="geometry">
            <mxPoint as="offset" />
          </mxGeometry>
        </mxCell>
        <mxCell id="l_rtGzSlXgLV2D2QH9FF-37" value="Full&lt;div&gt;Adder&lt;/div&gt;" style="rounded=0;whiteSpace=wrap;html=1;" vertex="1" parent="1">
          <mxGeometry x="460" y="440" width="80" height="80" as="geometry" />
        </mxCell>
        <mxCell id="l_rtGzSlXgLV2D2QH9FF-38" value="" style="endArrow=classic;html=1;rounded=0;entryX=0.75;entryY=0;entryDx=0;entryDy=0;" edge="1" parent="1" target="l_rtGzSlXgLV2D2QH9FF-37">
          <mxGeometry width="50" height="50" relative="1" as="geometry">
            <mxPoint x="520" y="340" as="sourcePoint" />
            <mxPoint x="570" y="310" as="targetPoint" />
          </mxGeometry>
        </mxCell>
        <mxCell id="l_rtGzSlXgLV2D2QH9FF-39" value="" style="endArrow=none;html=1;rounded=0;" edge="1" parent="1">
          <mxGeometry width="50" height="50" relative="1" as="geometry">
            <mxPoint x="470" y="360" as="sourcePoint" />
            <mxPoint x="470" y="340" as="targetPoint" />
          </mxGeometry>
        </mxCell>
        <mxCell id="l_rtGzSlXgLV2D2QH9FF-41" value="&lt;font face=&quot;Tahoma&quot; style=&quot;font-size: 11px;&quot;&gt;&lt;i&gt;b&lt;sub&gt;1&lt;/sub&gt;&lt;/i&gt;&lt;/font&gt;" style="text;strokeColor=none;align=center;fillColor=none;html=1;verticalAlign=middle;whiteSpace=wrap;rounded=0;fontFamily=Tahoma;" vertex="1" parent="1">
          <mxGeometry x="460" y="320" width="20" height="10" as="geometry" />
        </mxCell>
        <mxCell id="l_rtGzSlXgLV2D2QH9FF-42" value="&lt;font style=&quot;font-size: 11px;&quot;&gt;a&lt;sub&gt;1&lt;/sub&gt;&lt;/font&gt;" style="text;strokeColor=none;align=center;fillColor=none;html=1;verticalAlign=middle;whiteSpace=wrap;rounded=0;fontStyle=2" vertex="1" parent="1">
          <mxGeometry x="510" y="320" width="20" height="10" as="geometry" />
        </mxCell>
        <mxCell id="l_rtGzSlXgLV2D2QH9FF-43" value="&lt;font style=&quot;font-size: 11px;&quot;&gt;s&lt;sub&gt;1&lt;/sub&gt;&lt;/font&gt;" style="text;strokeColor=none;align=center;fillColor=none;html=1;verticalAlign=middle;whiteSpace=wrap;rounded=0;fontStyle=2;fontFamily=Tahoma;" vertex="1" parent="1">
          <mxGeometry x="490" y="580" width="20" height="10" as="geometry" />
        </mxCell>
        <mxCell id="l_rtGzSlXgLV2D2QH9FF-44" value="&lt;font face=&quot;Tahoma&quot; style=&quot;font-size: 11px;&quot;&gt;&lt;i&gt;c&lt;sub&gt;1&lt;/sub&gt;&lt;/i&gt;&lt;/font&gt;" style="endArrow=classic;html=1;rounded=0;entryX=1;entryY=0.5;entryDx=0;entryDy=0;labelPosition=left;verticalLabelPosition=top;align=right;verticalAlign=bottom;" edge="1" parent="1" target="l_rtGzSlXgLV2D2QH9FF-37">
          <mxGeometry width="50" height="50" relative="1" as="geometry">
            <mxPoint x="580" y="480" as="sourcePoint" />
            <mxPoint x="620" y="455" as="targetPoint" />
          </mxGeometry>
        </mxCell>
        <mxCell id="l_rtGzSlXgLV2D2QH9FF-46" style="edgeStyle=orthogonalEdgeStyle;rounded=0;orthogonalLoop=1;jettySize=auto;html=1;entryX=0.25;entryY=0;entryDx=0;entryDy=0;" edge="1" parent="1">
          <mxGeometry relative="1" as="geometry">
            <mxPoint x="480" y="420" as="sourcePoint" />
            <mxPoint x="480" y="440" as="targetPoint" />
          </mxGeometry>
        </mxCell>
        <mxCell id="l_rtGzSlXgLV2D2QH9FF-50" value="/ /" style="endArrow=none;html=1;rounded=0;labelPosition=center;verticalLabelPosition=middle;align=center;verticalAlign=middle;dashed=1;" edge="1" parent="1">
          <mxGeometry width="50" height="50" relative="1" as="geometry">
            <mxPoint x="330" y="350" as="sourcePoint" />
            <mxPoint x="448" y="350" as="targetPoint" />
          </mxGeometry>
        </mxCell>
        <mxCell id="l_rtGzSlXgLV2D2QH9FF-52" value="" style="endArrow=none;html=1;rounded=0;" edge="1" parent="1" target="l_rtGzSlXgLV2D2QH9FF-51">
          <mxGeometry width="50" height="50" relative="1" as="geometry">
            <mxPoint x="490" y="360" as="sourcePoint" />
            <mxPoint x="540" y="350" as="targetPoint" />
            <Array as="points" />
          </mxGeometry>
        </mxCell>
        <mxCell id="l_rtGzSlXgLV2D2QH9FF-54" value="" style="endArrow=none;html=1;rounded=0;" edge="1" parent="1">
          <mxGeometry width="50" height="50" relative="1" as="geometry">
            <mxPoint x="450" y="350" as="sourcePoint" />
            <mxPoint x="690" y="480" as="targetPoint" />
            <Array as="points">
              <mxPoint x="690" y="350" />
            </Array>
          </mxGeometry>
        </mxCell>
        <mxCell id="l_rtGzSlXgLV2D2QH9FF-51" value="" style="ellipse;whiteSpace=wrap;html=1;aspect=fixed;" vertex="1" parent="1">
          <mxGeometry x="487.5" y="347.5" width="5" height="5" as="geometry" />
        </mxCell>
        <mxCell id="l_rtGzSlXgLV2D2QH9FF-66" value="" style="verticalLabelPosition=bottom;shadow=0;dashed=0;align=center;html=1;verticalAlign=top;shape=mxgraph.electrical.logic_gates.logic_gate;operation=xor;rotation=90;" vertex="1" parent="1">
          <mxGeometry x="570" y="370" width="60" height="40" as="geometry" />
        </mxCell>
        <mxCell id="l_rtGzSlXgLV2D2QH9FF-67" style="edgeStyle=orthogonalEdgeStyle;rounded=0;orthogonalLoop=1;jettySize=auto;html=1;exitX=0.5;exitY=1;exitDx=0;exitDy=0;" edge="1" parent="1" source="l_rtGzSlXgLV2D2QH9FF-68">
          <mxGeometry relative="1" as="geometry">
            <mxPoint x="620" y="580" as="targetPoint" />
          </mxGeometry>
        </mxCell>
        <mxCell id="l_rtGzSlXgLV2D2QH9FF-68" value="Full&lt;div&gt;Adder&lt;/div&gt;" style="rounded=0;whiteSpace=wrap;html=1;" vertex="1" parent="1">
          <mxGeometry x="580" y="440" width="80" height="80" as="geometry" />
        </mxCell>
        <mxCell id="l_rtGzSlXgLV2D2QH9FF-69" value="" style="endArrow=classic;html=1;rounded=0;entryX=0.75;entryY=0;entryDx=0;entryDy=0;" edge="1" parent="1" target="l_rtGzSlXgLV2D2QH9FF-68">
          <mxGeometry width="50" height="50" relative="1" as="geometry">
            <mxPoint x="640" y="340" as="sourcePoint" />
            <mxPoint x="690" y="310" as="targetPoint" />
          </mxGeometry>
        </mxCell>
        <mxCell id="l_rtGzSlXgLV2D2QH9FF-70" value="" style="endArrow=none;html=1;rounded=0;" edge="1" parent="1">
          <mxGeometry width="50" height="50" relative="1" as="geometry">
            <mxPoint x="590" y="360" as="sourcePoint" />
            <mxPoint x="590" y="340" as="targetPoint" />
          </mxGeometry>
        </mxCell>
        <mxCell id="l_rtGzSlXgLV2D2QH9FF-71" value="&lt;font style=&quot;font-size: 11px;&quot;&gt;b&lt;sub&gt;0&lt;/sub&gt;&lt;/font&gt;" style="text;strokeColor=none;align=center;fillColor=none;html=1;verticalAlign=middle;whiteSpace=wrap;rounded=0;fontFamily=Tahoma;fontStyle=2" vertex="1" parent="1">
          <mxGeometry x="580" y="320" width="20" height="10" as="geometry" />
        </mxCell>
        <mxCell id="l_rtGzSlXgLV2D2QH9FF-72" value="&lt;font face=&quot;Tahoma&quot; style=&quot;font-size: 11px;&quot;&gt;a&lt;sub&gt;0&lt;/sub&gt;&lt;/font&gt;" style="text;strokeColor=none;align=center;fillColor=none;html=1;verticalAlign=middle;whiteSpace=wrap;rounded=0;fontStyle=2" vertex="1" parent="1">
          <mxGeometry x="630" y="320" width="20" height="10" as="geometry" />
        </mxCell>
        <mxCell id="l_rtGzSlXgLV2D2QH9FF-73" value="&lt;font face=&quot;Tahoma&quot; style=&quot;font-size: 11px;&quot;&gt;&lt;i&gt;s&lt;sub&gt;0&lt;/sub&gt;&lt;/i&gt;&lt;/font&gt;" style="text;strokeColor=none;align=center;fillColor=none;html=1;verticalAlign=middle;whiteSpace=wrap;rounded=0;" vertex="1" parent="1">
          <mxGeometry x="610" y="580" width="20" height="10" as="geometry" />
        </mxCell>
        <mxCell id="l_rtGzSlXgLV2D2QH9FF-74" value="&lt;font face=&quot;Tahoma&quot; style=&quot;font-size: 11px;&quot;&gt;&lt;i&gt;c&lt;sub&gt;0&lt;/sub&gt;&lt;/i&gt;&lt;/font&gt;" style="endArrow=classic;html=1;rounded=0;entryX=1;entryY=0.5;entryDx=0;entryDy=0;labelPosition=left;verticalLabelPosition=top;align=right;verticalAlign=bottom;" edge="1" parent="1" target="l_rtGzSlXgLV2D2QH9FF-68">
          <mxGeometry width="50" height="50" relative="1" as="geometry">
            <mxPoint x="700" y="480" as="sourcePoint" />
            <mxPoint x="740" y="455" as="targetPoint" />
          </mxGeometry>
        </mxCell>
        <mxCell id="l_rtGzSlXgLV2D2QH9FF-75" style="edgeStyle=orthogonalEdgeStyle;rounded=0;orthogonalLoop=1;jettySize=auto;html=1;entryX=0.25;entryY=0;entryDx=0;entryDy=0;" edge="1" parent="1">
          <mxGeometry relative="1" as="geometry">
            <mxPoint x="600" y="420" as="sourcePoint" />
            <mxPoint x="600" y="440" as="targetPoint" />
          </mxGeometry>
        </mxCell>
        <mxCell id="l_rtGzSlXgLV2D2QH9FF-76" value="" style="endArrow=none;html=1;rounded=0;" edge="1" parent="1" target="l_rtGzSlXgLV2D2QH9FF-77">
          <mxGeometry width="50" height="50" relative="1" as="geometry">
            <mxPoint x="610" y="360" as="sourcePoint" />
            <mxPoint x="660" y="350" as="targetPoint" />
            <Array as="points" />
          </mxGeometry>
        </mxCell>
        <mxCell id="l_rtGzSlXgLV2D2QH9FF-77" value="" style="ellipse;whiteSpace=wrap;html=1;aspect=fixed;" vertex="1" parent="1">
          <mxGeometry x="607.5" y="347.5" width="5" height="5" as="geometry" />
        </mxCell>
        <mxCell id="l_rtGzSlXgLV2D2QH9FF-78" value="&lt;span style=&quot;font-size: 10px;&quot;&gt;SUB&lt;/span&gt;" style="text;strokeColor=none;align=center;fillColor=none;html=1;verticalAlign=middle;whiteSpace=wrap;rounded=0;" vertex="1" parent="1">
          <mxGeometry x="700" y="475" width="30" height="10" as="geometry" />
        </mxCell>
        <mxCell id="l_rtGzSlXgLV2D2QH9FF-79" value="" style="ellipse;whiteSpace=wrap;html=1;aspect=fixed;" vertex="1" parent="1">
          <mxGeometry x="337.5" y="477.5" width="5" height="5" as="geometry" />
        </mxCell>
        <mxCell id="l_rtGzSlXgLV2D2QH9FF-81" value="" style="ellipse;whiteSpace=wrap;html=1;aspect=fixed;" vertex="1" parent="1">
          <mxGeometry x="197.5" y="477.5" width="5" height="5" as="geometry" />
        </mxCell>
        <mxCell id="l_rtGzSlXgLV2D2QH9FF-82" value="" style="ellipse;whiteSpace=wrap;html=1;aspect=fixed;" vertex="1" parent="1">
          <mxGeometry x="687.5" y="477.5" width="5" height="5" as="geometry" />
        </mxCell>
      </root>
    </mxGraphModel>
  </diagram>
</mxfile>
